<?xml version="1.0" standalone="no"?><svg xmlns:xlink="http://www.w3.org/1999/xlink" xmlns="http://www.w3.org/2000/svg" viewBox="0 0 1000 473.6870927112425" preserveAspectRatio="xMaxYMax slice"><g transform="scale(0.6845189201029516)"><rect x="0" y="0" width="1460.888888888889" height="692" fill="#ffffff"/><rect x="538.2222222222222" y="76.88888888888889" width="76.88888888888889" height="76.88888888888889" fill="#ffffff"/><path d="M 576.67 76.89 A 38.44 38.44 0 0 1  615.1099999999999 115.33 L 576.67 76.89 A 38.44 38.44 0 0 0 615.1099999999999 115.33" fill="#c2add0"/><rect x="0" y="153.77777777777777" width="76.88888888888889" height="76.88888888888889" fill="#ffffff"/><path d="M 384.44 230.67000000000002 A 76.89 76.89 0 0 1  461.33 153.78 L 384.44 230.67000000000002 A 76.89 76.89 0 0 0 461.33 153.78" fill="#ffffff"/><path d="M 999.56 153.78 A 76.89 76.89 0 0 1  1076.45 230.67000000000002 L 999.56 153.78 A 76.89 76.89 0 0 0 1076.45 230.67000000000002" fill="#b59bc5"/><path d="M 1076.44 230.67000000000002 A 76.89 76.89 0 0 1  1153.3300000000002 153.78 L 1076.44 230.67000000000002 A 76.89 76.89 0 0 0 1153.3300000000002 153.78" fill="#939393"/><path d="M 307.56 230.67 A 76.89 76.89 0 0 1  384.45 307.56 L 307.56 230.67 A 76.89 76.89 0 0 0 384.45 307.56" fill="#505050"/><rect x="615.1111111111111" y="230.66666666666666" width="76.88888888888889" height="76.88888888888889" fill="#ffffff"/><path d="M 615.11 269.11 A 38.44 38.44 0 0 1  653.55 307.55 L 615.11 269.11 A 38.44 38.44 0 0 0 653.55 307.55" fill="#040404"/><path d="M 653.56 269.11 A 38.44 38.44 0 0 1  692 307.55 L 653.56 269.11 A 38.44 38.44 0 0 0 692 307.55" fill="#ede7f1"/><path d="M 922.67 230.67 A 76.89 76.89 0 0 1  999.56 307.56 L 922.67 230.67 A 76.89 76.89 0 0 0 999.56 307.56" fill="#636363"/><path d="M 999.56 230.67 A 76.89 76.89 0 0 1  1076.45 307.56 L 999.56 230.67 A 76.89 76.89 0 0 0 1076.45 307.56" fill="#a8a8a8"/><rect x="1230.2222222222222" y="230.66666666666666" width="76.88888888888889" height="76.88888888888889" fill="#ffffff"/><path d="M 1230.22 269.11 A 38.44 38.44 0 0 1  1268.66 307.55 L 1230.22 269.11 A 38.44 38.44 0 0 0 1268.66 307.55" fill="#5c5c5c"/><path d="M 1268.67 269.11 A 38.44 38.44 0 0 1  1307.1100000000001 307.55 L 1268.67 269.11 A 38.44 38.44 0 0 0 1307.1100000000001 307.55" fill="#f1ecf4"/><rect x="1384" y="230.66666666666666" width="76.88888888888889" height="76.88888888888889" fill="#ffffff"/><path d="M 1384 230.67 A 38.44 38.44 0 0 1  1422.44 269.11 L 1384 230.67 A 38.44 38.44 0 0 0 1422.44 269.11" fill="#ccbad7"/><rect x="76.88888888888889" y="307.55555555555554" width="76.88888888888889" height="76.88888888888889" fill="#ffffff"/><path d="M 76.89 346 A 38.44 38.44 0 0 1  115.33 307.56 L 76.89 346 A 38.44 38.44 0 0 0 115.33 307.56" fill="#b7b7b7"/><path d="M 153.78 307.56 A 76.89 76.89 0 0 1  230.67000000000002 384.45 L 153.78 307.56 A 76.89 76.89 0 0 0 230.67000000000002 384.45" fill="#a0a0a0"/><path d="M 384.44 384.45 A 76.89 76.89 0 0 1  461.33 307.56 L 384.44 384.45 A 76.89 76.89 0 0 0 461.33 307.56" fill="#e9e2ee"/><path d="M 845.78 307.56 A 76.89 76.89 0 0 1  922.67 384.45 L 845.78 307.56 A 76.89 76.89 0 0 0 922.67 384.45" fill="#ece5f0"/><path d="M 999.56 384.45 A 76.89 76.89 0 0 1  1076.45 307.56 L 999.56 384.45 A 76.89 76.89 0 0 0 1076.45 307.56" fill="#ededed"/><path d="M 0 384.44 A 76.89 76.89 0 0 1  76.89 461.33 L 0 384.44 A 76.89 76.89 0 0 0 76.89 461.33" fill="#fcfafc"/><path d="M 76.89 384.44 A 76.89 76.89 0 0 1  153.78 461.33 L 76.89 384.44 A 76.89 76.89 0 0 0 153.78 461.33" fill="#c3c3c3"/><rect x="230.66666666666666" y="384.44444444444446" width="76.88888888888889" height="76.88888888888889" fill="#ffffff"/><path d="M 230.67 384.44 A 38.44 38.44 0 0 1  269.11 422.88 L 230.67 384.44 A 38.44 38.44 0 0 0 269.11 422.88" fill="#707070"/><path d="M 269.11 384.44 A 38.44 38.44 0 0 1  307.55 422.88 L 269.11 384.44 A 38.44 38.44 0 0 0 307.55 422.88" fill="#e7e7e7"/><path d="M 230.67 422.89 A 38.44 38.44 0 0 1  269.11 461.33 L 230.67 422.89 A 38.44 38.44 0 0 0 269.11 461.33" fill="#b9a0c8"/><path d="M 269.11 461.33 A 38.44 38.44 0 0 1  307.55 422.89 L 269.11 461.33 A 38.44 38.44 0 0 0 307.55 422.89" fill="#717171"/><rect x="461.3333333333333" y="384.44444444444446" width="76.88888888888889" height="76.88888888888889" fill="#ffffff"/><path d="M 461.33 384.44 A 38.44 38.44 0 0 1  499.77 422.88 L 461.33 384.44 A 38.44 38.44 0 0 0 499.77 422.88" fill="#e4dbea"/><path d="M 499.78 422.88 A 38.44 38.44 0 0 1  538.22 384.44 L 499.78 422.88 A 38.44 38.44 0 0 0 538.22 384.44" fill="#af93c1"/><path d="M 461.33 422.89 A 38.44 38.44 0 0 1  499.77 461.33 L 461.33 422.89 A 38.44 38.44 0 0 0 499.77 461.33" fill="#b69cc6"/><path d="M 538.22 384.44 A 76.89 76.89 0 0 1  615.11 461.33 L 538.22 384.44 A 76.89 76.89 0 0 0 615.11 461.33" fill="#232323"/><rect x="615.1111111111111" y="384.44444444444446" width="76.88888888888889" height="76.88888888888889" fill="#ffffff"/><path d="M 615.11 384.44 A 38.44 38.44 0 0 1  653.55 422.88 L 615.11 384.44 A 38.44 38.44 0 0 0 653.55 422.88" fill="#a8a8a8"/><path d="M 653.56 422.88 A 38.44 38.44 0 0 1  692 384.44 L 653.56 422.88 A 38.44 38.44 0 0 0 692 384.44" fill="#ededed"/><rect x="692" y="384.44444444444446" width="76.88888888888889" height="76.88888888888889" fill="#ffffff"/><path d="M 692 422.88 A 38.44 38.44 0 0 1  730.44 384.44 L 692 422.88 A 38.44 38.44 0 0 0 730.44 384.44" fill="#d8cae0"/><path d="M 730.44 422.88 A 38.44 38.44 0 0 1  768.8800000000001 384.44 L 730.44 422.88 A 38.44 38.44 0 0 0 768.8800000000001 384.44" fill="#e2e2e2"/><path d="M 692 461.33 A 38.44 38.44 0 0 1  730.44 422.89 L 692 461.33 A 38.44 38.44 0 0 0 730.44 422.89" fill="#efe9f3"/><path d="M 730.44 422.89 A 38.44 38.44 0 0 1  768.8800000000001 461.33 L 730.44 422.89 A 38.44 38.44 0 0 0 768.8800000000001 461.33" fill="#cbb8d6"/><rect x="768.8888888888889" y="384.44444444444446" width="76.88888888888889" height="76.88888888888889" fill="#ffffff"/><path d="M 768.89 384.44 A 38.44 38.44 0 0 1  807.3299999999999 422.88 L 768.89 384.44 A 38.44 38.44 0 0 0 807.3299999999999 422.88" fill="#dbcfe3"/><path d="M 768.89 422.89 A 38.44 38.44 0 0 1  807.3299999999999 461.33 L 768.89 422.89 A 38.44 38.44 0 0 0 807.3299999999999 461.33" fill="#eae3ef"/><path d="M 807.33 422.89 A 38.44 38.44 0 0 1  845.77 461.33 L 807.33 422.89 A 38.44 38.44 0 0 0 845.77 461.33" fill="#f9f7fa"/><path d="M 922.67 461.33 A 76.89 76.89 0 0 1  999.56 384.44 L 922.67 461.33 A 76.89 76.89 0 0 0 999.56 384.44" fill="#f5f2f7"/><path d="M 999.56 384.44 A 76.89 76.89 0 0 1  1076.45 461.33 L 999.56 384.44 A 76.89 76.89 0 0 0 1076.45 461.33" fill="#e6ddec"/><path d="M 1153.33 461.33 A 76.89 76.89 0 0 1  1230.22 384.44 L 1153.33 461.33 A 76.89 76.89 0 0 0 1230.22 384.44" fill="#060606"/><path d="M 1230.22 384.44 A 76.89 76.89 0 0 1  1307.1100000000001 461.33 L 1230.22 384.44 A 76.89 76.89 0 0 0 1307.1100000000001 461.33" fill="#7d7d7d"/><path d="M 1307.11 384.44 A 76.89 76.89 0 0 1  1384 461.33 L 1307.11 384.44 A 76.89 76.89 0 0 0 1384 461.33" fill="#b1b1b1"/><rect x="0" y="461.3333333333333" width="76.88888888888889" height="76.88888888888889" fill="#ffffff"/><path d="M 0 499.77 A 38.44 38.44 0 0 1  38.44 461.33 L 0 499.77 A 38.44 38.44 0 0 0 38.44 461.33" fill="#131313"/><path d="M 38.44 461.33 A 38.44 38.44 0 0 1  76.88 499.77 L 38.44 461.33 A 38.44 38.44 0 0 0 76.88 499.77" fill="#d9cbe1"/><path d="M 0 499.78 A 38.44 38.44 0 0 1  38.44 538.22 L 0 499.78 A 38.44 38.44 0 0 0 38.44 538.22" fill="#baa2c9"/><path d="M 38.44 499.78 A 38.44 38.44 0 0 1  76.88 538.22 L 38.44 499.78 A 38.44 38.44 0 0 0 76.88 538.22" fill="#ccbad7"/><path d="M 153.78 461.33 A 76.89 76.89 0 0 1  230.67000000000002 538.22 L 153.78 461.33 A 76.89 76.89 0 0 0 230.67000000000002 538.22" fill="#9c9c9c"/><path d="M 230.67 538.22 A 76.89 76.89 0 0 1  307.56 461.33 L 230.67 538.22 A 76.89 76.89 0 0 0 307.56 461.33" fill="#f8f6fa"/><rect x="307.55555555555554" y="461.3333333333333" width="76.88888888888889" height="76.88888888888889" fill="#ffffff"/><path d="M 307.56 461.33 A 38.44 38.44 0 0 1  346 499.77 L 307.56 461.33 A 38.44 38.44 0 0 0 346 499.77" fill="#909090"/><path d="M 346 461.33 A 38.44 38.44 0 0 1  384.44 499.77 L 346 461.33 A 38.44 38.44 0 0 0 384.44 499.77" fill="#f7f5f9"/><path d="M 346 538.22 A 38.44 38.44 0 0 1  384.44 499.78 L 346 538.22 A 38.44 38.44 0 0 0 384.44 499.78" fill="#e0d4e6"/><rect x="461.3333333333333" y="461.3333333333333" width="76.88888888888889" height="76.88888888888889" fill="#ffffff"/><path d="M 461.33 461.33 A 38.44 38.44 0 0 1  499.77 499.77 L 461.33 461.33 A 38.44 38.44 0 0 0 499.77 499.77" fill="#e2e2e2"/><path d="M 499.78 499.77 A 38.44 38.44 0 0 1  538.22 461.33 L 499.78 499.77 A 38.44 38.44 0 0 0 538.22 461.33" fill="#363636"/><path d="M 461.33 538.22 A 38.44 38.44 0 0 1  499.77 499.78 L 461.33 538.22 A 38.44 38.44 0 0 0 499.77 499.78" fill="#fefefe"/><path d="M 499.78 538.22 A 38.44 38.44 0 0 1  538.22 499.78 L 499.78 538.22 A 38.44 38.44 0 0 0 538.22 499.78" fill="#bea7cc"/><path d="M 615.11 538.22 A 76.89 76.89 0 0 1  692 461.33 L 615.11 538.22 A 76.89 76.89 0 0 0 692 461.33" fill="#343434"/><rect x="692" y="461.3333333333333" width="76.88888888888889" height="76.88888888888889" fill="#ffffff"/><path d="M 692 499.77 A 38.44 38.44 0 0 1  730.44 461.33 L 692 499.77 A 38.44 38.44 0 0 0 730.44 461.33" fill="#d5d5d5"/><path d="M 730.44 461.33 A 38.44 38.44 0 0 1  768.8800000000001 499.77 L 730.44 461.33 A 38.44 38.44 0 0 0 768.8800000000001 499.77" fill="#b79ec7"/><path d="M 692 499.78 A 38.44 38.44 0 0 1  730.44 538.22 L 692 499.78 A 38.44 38.44 0 0 0 730.44 538.22" fill="#151515"/><path d="M 730.44 499.78 A 38.44 38.44 0 0 1  768.8800000000001 538.22 L 730.44 499.78 A 38.44 38.44 0 0 0 768.8800000000001 538.22" fill="#dbcfe3"/><rect x="845.7777777777777" y="461.3333333333333" width="76.88888888888889" height="76.88888888888889" fill="#ffffff"/><path d="M 845.78 461.33 A 38.44 38.44 0 0 1  884.22 499.77 L 845.78 461.33 A 38.44 38.44 0 0 0 884.22 499.77" fill="#c3add0"/><path d="M 884.22 499.77 A 38.44 38.44 0 0 1  922.6600000000001 461.33 L 884.22 499.77 A 38.44 38.44 0 0 0 922.6600000000001 461.33" fill="#4b4b4b"/><path d="M 845.78 538.22 A 38.44 38.44 0 0 1  884.22 499.78 L 845.78 538.22 A 38.44 38.44 0 0 0 884.22 499.78" fill="#fdfcfd"/><path d="M 884.22 538.22 A 38.44 38.44 0 0 1  922.6600000000001 499.78 L 884.22 538.22 A 38.44 38.44 0 0 0 922.6600000000001 499.78" fill="#f5f1f7"/><rect x="922.6666666666666" y="461.3333333333333" width="76.88888888888889" height="76.88888888888889" fill="#ffffff"/><path d="M 922.67 461.33 A 38.44 38.44 0 0 1  961.1099999999999 499.77 L 922.67 461.33 A 38.44 38.44 0 0 0 961.1099999999999 499.77" fill="#faf8fb"/><path d="M 961.11 461.33 A 38.44 38.44 0 0 1  999.55 499.77 L 961.11 461.33 A 38.44 38.44 0 0 0 999.55 499.77" fill="#fefdfe"/><path d="M 922.67 499.78 A 38.44 38.44 0 0 1  961.1099999999999 538.22 L 922.67 499.78 A 38.44 38.44 0 0 0 961.1099999999999 538.22" fill="#dcd0e4"/><path d="M 961.11 538.22 A 38.44 38.44 0 0 1  999.55 499.78 L 961.11 538.22 A 38.44 38.44 0 0 0 999.55 499.78" fill="#676767"/><rect x="999.5555555555555" y="461.3333333333333" width="76.88888888888889" height="76.88888888888889" fill="#ffffff"/><path d="M 999.56 499.77 A 38.44 38.44 0 0 1  1038 461.33 L 999.56 499.77 A 38.44 38.44 0 0 0 1038 461.33" fill="#cdbcd8"/><path d="M 1038 499.77 A 38.44 38.44 0 0 1  1076.44 461.33 L 1038 499.77 A 38.44 38.44 0 0 0 1076.44 461.33" fill="#b094c2"/><path d="M 999.56 499.78 A 38.44 38.44 0 0 1  1038 538.22 L 999.56 499.78 A 38.44 38.44 0 0 0 1038 538.22" fill="#b49ac5"/><path d="M 1038 499.78 A 38.44 38.44 0 0 1  1076.44 538.22 L 1038 499.78 A 38.44 38.44 0 0 0 1076.44 538.22" fill="#dfdfdf"/><path d="M 1076.44 538.22 A 76.89 76.89 0 0 1  1153.3300000000002 461.33 L 1076.44 538.22 A 76.89 76.89 0 0 0 1153.3300000000002 461.33" fill="#fbf9fc"/><path d="M 1153.33 461.33 A 76.89 76.89 0 0 1  1230.22 538.22 L 1153.33 461.33 A 76.89 76.89 0 0 0 1230.22 538.22" fill="#c5c5c5"/><rect x="1230.2222222222222" y="461.3333333333333" width="76.88888888888889" height="76.88888888888889" fill="#ffffff"/><path d="M 1230.22 461.33 A 38.44 38.44 0 0 1  1268.66 499.77 L 1230.22 461.33 A 38.44 38.44 0 0 0 1268.66 499.77" fill="#616161"/><path d="M 1268.67 499.77 A 38.44 38.44 0 0 1  1307.1100000000001 461.33 L 1268.67 499.77 A 38.44 38.44 0 0 0 1307.1100000000001 461.33" fill="#d6c7df"/><path d="M 1230.22 538.22 A 38.44 38.44 0 0 1  1268.66 499.78 L 1230.22 538.22 A 38.44 38.44 0 0 0 1268.66 499.78" fill="#707070"/><path d="M 1268.67 538.22 A 38.44 38.44 0 0 1  1307.1100000000001 499.78 L 1268.67 538.22 A 38.44 38.44 0 0 0 1307.1100000000001 499.78" fill="#5a5a5a"/><path d="M 1307.11 461.33 A 76.89 76.89 0 0 1  1384 538.22 L 1307.11 461.33 A 76.89 76.89 0 0 0 1384 538.22" fill="#c3aed0"/><path d="M 1384 538.22 A 76.89 76.89 0 0 1  1460.89 461.33 L 1384 538.22 A 76.89 76.89 0 0 0 1460.89 461.33" fill="#f6f3f8"/><rect x="0" y="538.2222222222222" width="76.88888888888889" height="76.88888888888889" fill="#ffffff"/><path d="M 0 538.22 A 38.44 38.44 0 0 1  38.44 576.6600000000001 L 0 538.22 A 38.44 38.44 0 0 0 38.44 576.6600000000001" fill="#e5dceb"/><path d="M 38.44 538.22 A 38.44 38.44 0 0 1  76.88 576.6600000000001 L 38.44 538.22 A 38.44 38.44 0 0 0 76.88 576.6600000000001" fill="#e9e1ee"/><path d="M 0 615.1099999999999 A 38.44 38.44 0 0 1  38.44 576.67 L 0 615.1099999999999 A 38.44 38.44 0 0 0 38.44 576.67" fill="#757575"/><path d="M 38.44 576.67 A 38.44 38.44 0 0 1  76.88 615.1099999999999 L 38.44 576.67 A 38.44 38.44 0 0 0 76.88 615.1099999999999" fill="#cbb9d7"/><path d="M 76.89 538.22 A 76.89 76.89 0 0 1  153.78 615.11 L 76.89 538.22 A 76.89 76.89 0 0 0 153.78 615.11" fill="#d3c4dd"/><path d="M 230.67 538.22 A 76.89 76.89 0 0 1  307.56 615.11 L 230.67 538.22 A 76.89 76.89 0 0 0 307.56 615.11" fill="#515151"/><path d="M 307.56 538.22 A 76.89 76.89 0 0 1  384.45 615.11 L 307.56 538.22 A 76.89 76.89 0 0 0 384.45 615.11" fill="#d4c4dd"/><path d="M 384.44 615.11 A 76.89 76.89 0 0 1  461.33 538.22 L 384.44 615.11 A 76.89 76.89 0 0 0 461.33 538.22" fill="#fdfdfd"/><rect x="461.3333333333333" y="538.2222222222222" width="76.88888888888889" height="76.88888888888889" fill="#ffffff"/><path d="M 461.33 538.22 A 38.44 38.44 0 0 1  499.77 576.6600000000001 L 461.33 538.22 A 38.44 38.44 0 0 0 499.77 576.6600000000001" fill="#e1d7e8"/><path d="M 499.78 576.6600000000001 A 38.44 38.44 0 0 1  538.22 538.22 L 499.78 576.6600000000001 A 38.44 38.44 0 0 0 538.22 538.22" fill="#6a6a6a"/><path d="M 461.33 576.67 A 38.44 38.44 0 0 1  499.77 615.1099999999999 L 461.33 576.67 A 38.44 38.44 0 0 0 499.77 615.1099999999999" fill="#e1d6e7"/><path d="M 499.78 576.67 A 38.44 38.44 0 0 1  538.22 615.1099999999999 L 499.78 576.67 A 38.44 38.44 0 0 0 538.22 615.1099999999999" fill="#8d8d8d"/><rect x="538.2222222222222" y="538.2222222222222" width="76.88888888888889" height="76.88888888888889" fill="#ffffff"/><path d="M 538.22 576.6600000000001 A 38.44 38.44 0 0 1  576.6600000000001 538.22 L 538.22 576.6600000000001 A 38.44 38.44 0 0 0 576.6600000000001 538.22" fill="#b499c4"/><path d="M 576.67 576.6600000000001 A 38.44 38.44 0 0 1  615.1099999999999 538.22 L 576.67 576.6600000000001 A 38.44 38.44 0 0 0 615.1099999999999 538.22" fill="#c9b6d5"/><path d="M 538.22 615.1099999999999 A 38.44 38.44 0 0 1  576.6600000000001 576.67 L 538.22 615.1099999999999 A 38.44 38.44 0 0 0 576.6600000000001 576.67" fill="#9b9b9b"/><path d="M 576.67 576.67 A 38.44 38.44 0 0 1  615.1099999999999 615.1099999999999 L 576.67 576.67 A 38.44 38.44 0 0 0 615.1099999999999 615.1099999999999" fill="#b398c3"/><rect x="615.1111111111111" y="538.2222222222222" width="76.88888888888889" height="76.88888888888889" fill="#ffffff"/><path d="M 615.11 538.22 A 38.44 38.44 0 0 1  653.55 576.6600000000001 L 615.11 538.22 A 38.44 38.44 0 0 0 653.55 576.6600000000001" fill="#f5f5f5"/><path d="M 653.56 576.6600000000001 A 38.44 38.44 0 0 1  692 538.22 L 653.56 576.6600000000001 A 38.44 38.44 0 0 0 692 538.22" fill="#888888"/><path d="M 615.11 576.67 A 38.44 38.44 0 0 1  653.55 615.1099999999999 L 615.11 576.67 A 38.44 38.44 0 0 0 653.55 615.1099999999999" fill="#cdbbd8"/><path d="M 692 538.22 A 76.89 76.89 0 0 1  768.89 615.11 L 692 538.22 A 76.89 76.89 0 0 0 768.89 615.11" fill="#f6f2f8"/><path d="M 768.89 538.22 A 76.89 76.89 0 0 1  845.78 615.11 L 768.89 538.22 A 76.89 76.89 0 0 0 845.78 615.11" fill="#f3eff5"/><rect x="845.7777777777777" y="538.2222222222222" width="76.88888888888889" height="76.88888888888889" fill="#ffffff"/><path d="M 845.78 576.6600000000001 A 38.44 38.44 0 0 1  884.22 538.22 L 845.78 576.6600000000001 A 38.44 38.44 0 0 0 884.22 538.22" fill="#030303"/><path d="M 884.22 538.22 A 38.44 38.44 0 0 1  922.6600000000001 576.6600000000001 L 884.22 538.22 A 38.44 38.44 0 0 0 922.6600000000001 576.6600000000001" fill="#a8a8a8"/><path d="M 845.78 615.1099999999999 A 38.44 38.44 0 0 1  884.22 576.67 L 845.78 615.1099999999999 A 38.44 38.44 0 0 0 884.22 576.67" fill="#e6ddeb"/><rect x="922.6666666666666" y="538.2222222222222" width="76.88888888888889" height="76.88888888888889" fill="#ffffff"/><path d="M 922.67 538.22 A 38.44 38.44 0 0 1  961.1099999999999 576.6600000000001 L 922.67 538.22 A 38.44 38.44 0 0 0 961.1099999999999 576.6600000000001" fill="#efe9f2"/><path d="M 961.11 538.22 A 38.44 38.44 0 0 1  999.55 576.6600000000001 L 961.11 538.22 A 38.44 38.44 0 0 0 999.55 576.6600000000001" fill="#6c6c6c"/><path d="M 922.67 576.67 A 38.44 38.44 0 0 1  961.1099999999999 615.1099999999999 L 922.67 576.67 A 38.44 38.44 0 0 0 961.1099999999999 615.1099999999999" fill="#515151"/><path d="M 961.11 615.1099999999999 A 38.44 38.44 0 0 1  999.55 576.67 L 961.11 615.1099999999999 A 38.44 38.44 0 0 0 999.55 576.67" fill="#818181"/><rect x="999.5555555555555" y="538.2222222222222" width="76.88888888888889" height="76.88888888888889" fill="#ffffff"/><path d="M 1038 538.22 A 38.44 38.44 0 0 1  1076.44 576.6600000000001 L 1038 538.22 A 38.44 38.44 0 0 0 1076.44 576.6600000000001" fill="#8e8e8e"/><path d="M 999.56 576.67 A 38.44 38.44 0 0 1  1038 615.1099999999999 L 999.56 576.67 A 38.44 38.44 0 0 0 1038 615.1099999999999" fill="#b093c1"/><path d="M 1038 576.67 A 38.44 38.44 0 0 1  1076.44 615.1099999999999 L 1038 576.67 A 38.44 38.44 0 0 0 1076.44 615.1099999999999" fill="#dedede"/><path d="M 1076.44 615.11 A 76.89 76.89 0 0 1  1153.3300000000002 538.22 L 1076.44 615.11 A 76.89 76.89 0 0 0 1153.3300000000002 538.22" fill="#d4c5de"/><path d="M 1153.33 615.11 A 76.89 76.89 0 0 1  1230.22 538.22 L 1153.33 615.11 A 76.89 76.89 0 0 0 1230.22 538.22" fill="#ded2e5"/><path d="M 1230.22 615.11 A 76.89 76.89 0 0 1  1307.1100000000001 538.22 L 1230.22 615.11 A 76.89 76.89 0 0 0 1307.1100000000001 538.22" fill="#292929"/><path d="M 1307.11 538.22 A 76.89 76.89 0 0 1  1384 615.11 L 1307.11 538.22 A 76.89 76.89 0 0 0 1384 615.11" fill="#e9e9e9"/><rect x="1384" y="538.2222222222222" width="76.88888888888889" height="76.88888888888889" fill="#ffffff"/><path d="M 1384 576.6600000000001 A 38.44 38.44 0 0 1  1422.44 538.22 L 1384 576.6600000000001 A 38.44 38.44 0 0 0 1422.44 538.22" fill="#d6c7df"/><path d="M 1422.44 576.6600000000001 A 38.44 38.44 0 0 1  1460.88 538.22 L 1422.44 576.6600000000001 A 38.44 38.44 0 0 0 1460.88 538.22" fill="#292929"/><path d="M 1384 576.67 A 38.44 38.44 0 0 1  1422.44 615.1099999999999 L 1384 576.67 A 38.44 38.44 0 0 0 1422.44 615.1099999999999" fill="#ccbad7"/><path d="M 1422.44 576.67 A 38.44 38.44 0 0 1  1460.88 615.1099999999999 L 1422.44 576.67 A 38.44 38.44 0 0 0 1460.88 615.1099999999999" fill="#010101"/><rect x="0" y="615.1111111111111" width="76.88888888888889" height="76.88888888888889" fill="#ffffff"/><path d="M 0 615.11 A 38.44 38.44 0 0 1  38.44 653.55 L 0 615.11 A 38.44 38.44 0 0 0 38.44 653.55" fill="#b59bc6"/><path d="M 38.44 615.11 A 38.44 38.44 0 0 1  76.88 653.55 L 38.44 615.11 A 38.44 38.44 0 0 0 76.88 653.55" fill="#f0ebf3"/><path d="M 0 653.56 A 38.44 38.44 0 0 1  38.44 692 L 0 653.56 A 38.44 38.44 0 0 0 38.44 692" fill="#b399c4"/><path d="M 38.44 653.56 A 38.44 38.44 0 0 1  76.88 692 L 38.44 653.56 A 38.44 38.44 0 0 0 76.88 692" fill="#e0d5e7"/><rect x="76.88888888888889" y="615.1111111111111" width="76.88888888888889" height="76.88888888888889" fill="#ffffff"/><path d="M 76.89 653.55 A 38.44 38.44 0 0 1  115.33 615.11 L 76.89 653.55 A 38.44 38.44 0 0 0 115.33 615.11" fill="#b79ec7"/><path d="M 115.33 653.55 A 38.44 38.44 0 0 1  153.76999999999998 615.11 L 115.33 653.55 A 38.44 38.44 0 0 0 153.76999999999998 615.11" fill="#3c3c3c"/><path d="M 76.89 692 A 38.44 38.44 0 0 1  115.33 653.56 L 76.89 692 A 38.44 38.44 0 0 0 115.33 653.56" fill="#2c2c2c"/><path d="M 115.33 653.56 A 38.44 38.44 0 0 1  153.76999999999998 692 L 115.33 653.56 A 38.44 38.44 0 0 0 153.76999999999998 692" fill="#494949"/><path d="M 153.78 615.11 A 76.89 76.89 0 0 1  230.67000000000002 692 L 153.78 615.11 A 76.89 76.89 0 0 0 230.67000000000002 692" fill="#040404"/><rect x="230.66666666666666" y="615.1111111111111" width="76.88888888888889" height="76.88888888888889" fill="#ffffff"/><path d="M 230.67 653.55 A 38.44 38.44 0 0 1  269.11 615.11 L 230.67 653.55 A 38.44 38.44 0 0 0 269.11 615.11" fill="#fcfafc"/><path d="M 269.11 615.11 A 38.44 38.44 0 0 1  307.55 653.55 L 269.11 615.11 A 38.44 38.44 0 0 0 307.55 653.55" fill="#fefdfe"/><path d="M 230.67 692 A 38.44 38.44 0 0 1  269.11 653.56 L 230.67 692 A 38.44 38.44 0 0 0 269.11 653.56" fill="#e0d5e7"/><path d="M 269.11 692 A 38.44 38.44 0 0 1  307.55 653.56 L 269.11 692 A 38.44 38.44 0 0 0 307.55 653.56" fill="#555555"/><path d="M 307.56 692 A 76.89 76.89 0 0 1  384.45 615.11 L 307.56 692 A 76.89 76.89 0 0 0 384.45 615.11" fill="#d3c3dc"/><path d="M 384.44 692 A 76.89 76.89 0 0 1  461.33 615.11 L 384.44 692 A 76.89 76.89 0 0 0 461.33 615.11" fill="#e1e1e1"/><path d="M 461.33 615.11 A 76.89 76.89 0 0 1  538.22 692 L 461.33 615.11 A 76.89 76.89 0 0 0 538.22 692" fill="#535353"/><path d="M 538.22 615.11 A 76.89 76.89 0 0 1  615.11 692 L 538.22 615.11 A 76.89 76.89 0 0 0 615.11 692" fill="#272727"/><rect x="615.1111111111111" y="615.1111111111111" width="76.88888888888889" height="76.88888888888889" fill="#ffffff"/><path d="M 615.11 615.11 A 38.44 38.44 0 0 1  653.55 653.55 L 615.11 615.11 A 38.44 38.44 0 0 0 653.55 653.55" fill="#575757"/><path d="M 653.56 615.11 A 38.44 38.44 0 0 1  692 653.55 L 653.56 615.11 A 38.44 38.44 0 0 0 692 653.55" fill="#c5b1d2"/><path d="M 615.11 692 A 38.44 38.44 0 0 1  653.55 653.56 L 615.11 692 A 38.44 38.44 0 0 0 653.55 653.56" fill="#efe9f2"/><path d="M 653.56 653.56 A 38.44 38.44 0 0 1  692 692 L 653.56 653.56 A 38.44 38.44 0 0 0 692 692" fill="#cab7d5"/><rect x="692" y="615.1111111111111" width="76.88888888888889" height="76.88888888888889" fill="#ffffff"/><path d="M 692 615.11 A 38.44 38.44 0 0 1  730.44 653.55 L 692 615.11 A 38.44 38.44 0 0 0 730.44 653.55" fill="#e7deec"/><path d="M 730.44 615.11 A 38.44 38.44 0 0 1  768.8800000000001 653.55 L 730.44 615.11 A 38.44 38.44 0 0 0 768.8800000000001 653.55" fill="#e6e6e6"/><path d="M 692 692 A 38.44 38.44 0 0 1  730.44 653.56 L 692 692 A 38.44 38.44 0 0 0 730.44 653.56" fill="#4c4c4c"/><path d="M 730.44 692 A 38.44 38.44 0 0 1  768.8800000000001 653.56 L 730.44 692 A 38.44 38.44 0 0 0 768.8800000000001 653.56" fill="#c8b5d4"/><path d="M 768.89 615.11 A 76.89 76.89 0 0 1  845.78 692 L 768.89 615.11 A 76.89 76.89 0 0 0 845.78 692" fill="#989898"/><path d="M 845.78 692 A 76.89 76.89 0 0 1  922.67 615.11 L 845.78 692 A 76.89 76.89 0 0 0 922.67 615.11" fill="#d7c9e0"/><rect x="922.6666666666666" y="615.1111111111111" width="76.88888888888889" height="76.88888888888889" fill="#ffffff"/><path d="M 922.67 653.55 A 38.44 38.44 0 0 1  961.1099999999999 615.11 L 922.67 653.55 A 38.44 38.44 0 0 0 961.1099999999999 615.11" fill="#bfa9cd"/><path d="M 961.11 615.11 A 38.44 38.44 0 0 1  999.55 653.55 L 961.11 615.11 A 38.44 38.44 0 0 0 999.55 653.55" fill="#a7a7a7"/><path d="M 922.67 692 A 38.44 38.44 0 0 1  961.1099999999999 653.56 L 922.67 692 A 38.44 38.44 0 0 0 961.1099999999999 653.56" fill="#8f8f8f"/><path d="M 961.11 653.56 A 38.44 38.44 0 0 1  999.55 692 L 961.11 653.56 A 38.44 38.44 0 0 0 999.55 692" fill="#242424"/><path d="M 999.56 615.11 A 76.89 76.89 0 0 1  1076.45 692 L 999.56 615.11 A 76.89 76.89 0 0 0 1076.45 692" fill="#f7f4f9"/><rect x="1076.4444444444443" y="615.1111111111111" width="76.88888888888889" height="76.88888888888889" fill="#ffffff"/><path d="M 1076.44 653.55 A 38.44 38.44 0 0 1  1114.88 615.11 L 1076.44 653.55 A 38.44 38.44 0 0 0 1114.88 615.11" fill="#bfa9cd"/><path d="M 1114.89 615.11 A 38.44 38.44 0 0 1  1153.3300000000002 653.55 L 1114.89 615.11 A 38.44 38.44 0 0 0 1153.3300000000002 653.55" fill="#7d7d7d"/><path d="M 1076.44 653.56 A 38.44 38.44 0 0 1  1114.88 692 L 1076.44 653.56 A 38.44 38.44 0 0 0 1114.88 692" fill="#b6b6b6"/><path d="M 1114.89 653.56 A 38.44 38.44 0 0 1  1153.3300000000002 692 L 1114.89 653.56 A 38.44 38.44 0 0 0 1153.3300000000002 692" fill="#bda6cc"/><rect x="1153.3333333333333" y="615.1111111111111" width="76.88888888888889" height="76.88888888888889" fill="#ffffff"/><path d="M 1153.33 615.11 A 38.44 38.44 0 0 1  1191.77 653.55 L 1153.33 615.11 A 38.44 38.44 0 0 0 1191.77 653.55" fill="#535353"/><path d="M 1191.78 653.55 A 38.44 38.44 0 0 1  1230.22 615.11 L 1191.78 653.55 A 38.44 38.44 0 0 0 1230.22 615.11" fill="#343434"/><path d="M 1153.33 653.56 A 38.44 38.44 0 0 1  1191.77 692 L 1153.33 653.56 A 38.44 38.44 0 0 0 1191.77 692" fill="#b6b6b6"/><path d="M 1191.78 653.56 A 38.44 38.44 0 0 1  1230.22 692 L 1191.78 653.56 A 38.44 38.44 0 0 0 1230.22 692" fill="#b9a0c8"/><path d="M 1230.22 615.11 A 76.89 76.89 0 0 1  1307.1100000000001 692 L 1230.22 615.11 A 76.89 76.89 0 0 0 1307.1100000000001 692" fill="#ebe4f0"/><rect x="1307.111111111111" y="615.1111111111111" width="76.88888888888889" height="76.88888888888889" fill="#ffffff"/><path d="M 1307.11 615.11 A 38.44 38.44 0 0 1  1345.55 653.55 L 1307.11 615.11 A 38.44 38.44 0 0 0 1345.55 653.55" fill="#fdfcfe"/><path d="M 1345.56 653.55 A 38.44 38.44 0 0 1  1384 615.11 L 1345.56 653.55 A 38.44 38.44 0 0 0 1384 615.11" fill="#d1c1db"/><path d="M 1307.11 653.56 A 38.44 38.44 0 0 1  1345.55 692 L 1307.11 653.56 A 38.44 38.44 0 0 0 1345.55 692" fill="#b094c1"/><path d="M 1345.56 653.56 A 38.44 38.44 0 0 1  1384 692 L 1345.56 653.56 A 38.44 38.44 0 0 0 1384 692" fill="#d8cae0"/><rect x="1384" y="615.1111111111111" width="76.88888888888889" height="76.88888888888889" fill="#ffffff"/><path d="M 1384 653.55 A 38.44 38.44 0 0 1  1422.44 615.11 L 1384 653.55 A 38.44 38.44 0 0 0 1422.44 615.11" fill="#9e9e9e"/><path d="M 1422.44 653.55 A 38.44 38.44 0 0 1  1460.88 615.11 L 1422.44 653.55 A 38.44 38.44 0 0 0 1460.88 615.11" fill="#636363"/><path d="M 1384 692 A 38.44 38.44 0 0 1  1422.44 653.56 L 1384 692 A 38.44 38.44 0 0 0 1422.44 653.56" fill="#d5c6de"/><path d="M 1422.44 692 A 38.44 38.44 0 0 1  1460.88 653.56 L 1422.44 692 A 38.44 38.44 0 0 0 1460.88 653.56" fill="#f5f1f7"/></g></svg>